<?xml version="1.0" standalone="no"?>
<!DOCTYPE svg PUBLIC "-//W3C//DTD SVG 1.1//EN" "http://www.w3.org/Graphics/SVG/1.1/DTD/svg11.dtd" >
<svg xmlns="http://www.w3.org/2000/svg">
<metadata>Generated by IcoMoon</metadata>
<defs>
<font id="icomoon" horiz-adv-x="1024">
<font-face units-per-em="1024" ascent="960" descent="-64" />
<missing-glyph horiz-adv-x="1024" />
<glyph unicode="&#x20;" horiz-adv-x="512" d="" />
<glyph unicode="&#xe900;" glyph-name="play" d="M841.856 512.896l-582.272 374.784c-128.32 82.56-123.456-49.728-123.456-49.728v-779.584c0 0-2.304-126.016 106.496-56l603.584 388.544c0.064 0 96.576 57.024-4.352 121.984z" />
<glyph unicode="&#xe901;" glyph-name="list" d="M980.823 552.606c-23.853 0-43.188 21.142-43.188 47.284 0 144.11-73.817 222.023-154.952 243.255v-676.609c0.060-1.807 0.331-3.584 0.331-5.421s-0.271-3.614-0.331-5.421v-8.011c0-1.325-0.632-2.409-0.723-3.704-10.631-108.361-120.799-193.893-254.941-193.893-141.159 0-255.995 94.658-255.995 211.030 0 116.312 114.836 211 255.995 211 63.155 0 120.95-19.064 165.644-50.416v575.446c0 11.866 4.608 22.407 11.595 30.659 0.602 0.723 0.934 1.717 1.566 2.409 0.151 0.151 0.331 0.211 0.452 0.331 7.77 8.252 18.281 13.402 29.936 13.402 0.392 0 0.783-0.060 1.175-0.060 0.090 0 0.181 0.060 0.301 0.060 0.151 0 0.301-0.090 0.452-0.090 142.393-1.054 285.841-119.113 285.841-343.967 0-26.142-19.335-47.284-43.158-47.284zM527.020 282.486c-90.231 0-163.596-54.452-163.596-121.372 0-66.95 73.365-121.402 163.596-121.402s163.596 54.452 163.596 121.402c0 66.92-73.365 121.372-163.596 121.372zM526.478 612.689h-480.457c-25.268 0-45.778 20.148-45.778 44.995s20.51 44.995 45.778 44.995h480.457c25.238 0 45.748-20.148 45.748-44.995s-20.51-44.995-45.748-44.995zM526.478 853.656h-480.457c-25.268 0-45.778 20.118-45.778 44.965s20.51 44.995 45.778 44.995h480.457c25.238 0 45.748-20.148 45.748-44.995s-20.51-44.965-45.748-44.965zM46.021 461.713h239.521c25.238 0 45.748-20.118 45.748-44.965s-20.51-44.995-45.748-44.995h-239.521c-25.268 0-45.778 20.148-45.778 44.995s20.51 44.965 45.778 44.965z" />
<glyph unicode="&#xe902;" glyph-name="more" d="M0 416.421c0-53.015 42.977-95.993 95.993-95.993s95.993 42.977 95.993 95.993c0 53.015-42.977 95.993-95.993 95.993s-95.993-42.977-95.993-95.993zM416.844 416.421c0-53.015 42.977-95.993 95.993-95.993s95.993 42.977 95.993 95.993c0 53.015-42.977 95.993-95.993 95.993s-95.993-42.977-95.993-95.993zM832.665 416.421c0-53.015 42.977-95.993 95.993-95.993s95.993 42.977 95.993 95.993c0 53.015-42.977 95.993-95.993 95.993s-95.993-42.977-95.993-95.993z" />
<glyph unicode="&#xe903;" glyph-name="fm" d="M815.36 250.88c44.8 60.16 67.84 130.56 67.84 203.52s-23.040 143.36-67.84 203.52c-12.8 17.92-39.68 21.76-57.6 8.96-19.2-12.8-23.040-38.4-8.96-56.32 34.56-46.080 52.48-99.84 52.48-156.16s-17.92-110.080-52.48-156.16c-12.8-17.92-8.96-43.52 8.96-56.32 7.68-5.12 15.36-7.68 24.32-7.68 12.8-1.28 25.6 5.12 33.28 16.64zM249.6 454.4c0 56.32 17.92 110.080 51.2 156.16 12.8 17.92 8.96 43.52-8.96 56.32-19.2 12.8-44.8 8.96-57.6-8.96-44.8-60.16-67.84-130.56-67.84-203.52s23.040-144.64 67.84-203.52c7.68-11.52 20.48-16.64 33.28-16.64 8.96 0 16.64 2.56 24.32 7.68 19.2 12.8 23.040 38.4 8.96 56.32-33.28 46.080-51.2 99.84-51.2 156.16zM853.76 811.52c-15.36 16.64-40.96 17.92-58.88 3.84-16.64-15.36-19.2-40.96-3.84-57.6 75.52-84.48 117.76-192 117.76-303.36s-42.24-218.88-117.76-303.36c-15.36-16.64-12.8-42.24 3.84-57.6 7.68-6.4 17.92-10.24 26.88-10.24 11.52 0 23.040 5.12 30.72 14.080 89.6 99.84 138.24 226.56 138.24 357.12 1.28 130.56-47.36 258.56-136.96 357.12zM128 454.4c0 111.36 42.24 218.88 117.76 303.36 15.36 16.64 12.8 42.24-3.84 57.6s-43.52 12.8-58.88-3.84c-89.6-99.84-138.24-226.56-138.24-357.12s48.64-258.56 138.24-357.12c7.68-8.96 19.2-14.080 30.72-14.080 10.24 0 19.2 3.84 26.88 10.24 16.64 15.36 19.2 40.96 3.84 57.6-74.24 84.48-116.48 192-116.48 303.36zM518.4 625.92c-101.12 0-184.32-80.64-184.32-179.2 0-51.2 21.76-99.84 61.44-133.12 16.64-15.36 43.52-14.080 58.88 2.56s14.080 42.24-3.84 57.6c-21.76 19.2-33.28 44.8-33.28 72.96 0 53.76 44.8 98.56 101.12 98.56 55.040 0 101.12-44.8 101.12-98.56s-44.8-98.56-101.12-98.56h-7.68c-17.92 0-33.28-10.24-39.68-26.88-5.12-12.8-12.8-25.6-23.040-35.84-16.64-16.64-15.36-42.24 1.28-57.6 7.68-7.68 17.92-11.52 29.44-11.52 10.24 0 21.76 3.84 29.44 12.8 11.52 11.52 21.76 25.6 29.44 39.68 92.16 8.96 165.12 85.76 165.12 179.2 0 97.28-83.2 177.92-184.32 177.92z" />
<glyph unicode="&#xe904;" glyph-name="friends" d="M106.345 73.743c-16.238 0.026-29.393 13.186-29.41 29.423 0 74.724 23.612 145.666 68.292 205.163 21.776 28.762 47.055 53.357 75.555 73.738 23.624 16.945 49.48 30.913 77.059 41.38-23.763 18.261-45.341 40.361-61.716 66.096-21.251 33.416-33.555 73.054-33.555 115.567 0 0.126 0 0.253 0 0.379 0 119.788 97.461 217.234 217.269 217.234 119.793 0 217.254-97.461 217.254-217.254 0-73.336-36.021-140.198-96.798-180.646 29.417-11.253 54.83-25.034 78.087-41.64 28.544-20.366 53.829-45.014 74.914-73.005 43.341-56.961 69.058-128.004 69.058-205.054 0-0.345-0.001-0.689-0.002-1.033 0-16.165-13.191-29.372-29.41-29.372s-29.425 13.207-29.425 29.425c0 75.701-29.455 146.914-82.929 200.493-51.938 52.194-120.681 81.739-193.536 83.185l-0.798-0.361c-2.319-0.467-4.518-0.738-6.641-0.738-0.843 0-1.656 0.045-2.47 0.12-74.3-0.015-144.926-29.56-198.445-83.185-53.474-53.85-82.929-125.064-82.929-200.493-0.026-16.241-13.184-29.399-29.423-29.425zM419.945 763.904c-87.356 0-158.419-71.063-158.419-158.419s71.063-158.419 158.419-158.419 158.434 71.063 158.434 158.419-71.078 158.419-158.434 158.419zM899.825 137.698c-16.239 0.017-29.399 13.172-29.425 29.407 0 130.126-99.132 235.989-220.988 235.989-16.28 0-29.478 13.198-29.478 29.478s13.198 29.478 29.478 29.478c66.65 0 120.877 58.232 120.877 129.792 0 71.575-54.242 129.807-120.877 129.807-16.218 0-29.41 13.192-29.41 29.425s13.192 29.425 29.41 29.425c99.102 0 179.727-84.631 179.727-188.642 0-33.416-8.433-66.184-24.365-94.75-12.659-22.677-29.060-41.726-48.574-56.974 47.34-20.971 88.661-55.154 119.456-99.578 35.192-50.824 53.715-110.788 53.609-173.463-0.043-16.233-13.204-29.378-29.438-29.395z" />
<glyph unicode="&#xe905;" glyph-name="prev" d="M860.3 44.1l-643.9 371.8c-27.8 16-27.8 56.1 0 72.1l643.9 371.8c27.8 16 62.5-4 62.5-36.1v-743.5c0-32.1-34.7-52.1-62.5-36.1zM148.4 0.2c-26.1 0-47.2 21.1-47.2 47.2v801.2c0 26.1 21.1 47.2 47.2 47.2s47.2-21.1 47.2-47.2v-801.3c0-26-21.2-47.1-47.2-47.1z" />
<glyph unicode="&#xe906;" glyph-name="setting" d="M926.857 357.034l-18.354 9.583c-28.682 16.72-48.035 47.845-48.035 83.547 0 35.635 19.291 66.757 47.975 83.545l18.414 9.643c19.164 10.019 29.493 32.442 25.988 53.294-3.569 10.773-7.578 21.543-11.96 32.189v0c-4.447 10.651-9.207 21.11-14.28 31.254-12.275 17.22-35.445 25.803-56.114 19.29l-19.792-6.203c-32.188-8.453-67.823-0.123-93.060 25.115-25.239 25.236-33.566 60.87-25.114 92.999l6.202 19.79c6.511 20.607-2.068 43.777-19.289 56.113-10.149 5.076-20.54 9.895-31.253 14.282v0c-10.645 4.444-21.415 8.392-32.191 11.96-20.855 3.507-43.337-6.824-53.293-25.988l-9.586-18.353c-16.779-28.745-47.909-48.035-83.545-48.035-35.634 0-66.758 19.29-83.543 48.035l-9.58 18.353c-10.020 19.163-32.438 29.495-53.294 25.988-10.838-3.509-21.545-7.517-32.253-11.898v0c-10.65-4.449-21.109-9.207-31.254-14.282-17.22-12.337-25.802-35.505-19.288-56.175l6.201-19.79c8.453-32.191 0.062-67.824-25.113-92.999-25.175-25.238-60.811-33.568-93.001-25.175l-19.852 6.264c-20.608 6.513-43.777-2.070-56.052-19.29-5.136-10.144-9.895-20.602-14.282-31.254v0c-4.443-10.645-8.39-21.415-11.959-32.189-3.507-20.919 6.822-43.338 25.988-53.356l18.353-9.58c28.745-16.786 48.033-47.909 48.033-83.545s-19.288-66.702-47.972-83.482l-18.413-9.648c-19.166-10.020-29.495-32.438-25.988-53.294 3.569-10.775 7.578-21.544 11.959-32.19v0c4.449-10.645 9.207-21.104 14.282-31.252 12.275-17.219 35.443-25.804 56.113-19.291l19.723 6.203c32.194 8.453 67.892 0.123 93.068-25.116 25.175-25.174 33.565-60.809 25.175-92.936l-6.263-19.915c-6.452-20.609 2.068-43.776 19.288-56.113 10.144-5.077 20.541-9.894 31.254-14.281v0c10.645-4.445 21.415-8.393 32.189-11.96 20.851-3.507 43.337 6.824 53.297 25.988l9.579 18.353c16.784 28.683 47.91 48.035 83.605 48.035 35.635 0 66.704-19.291 83.482-47.91l9.649-18.478c10.018-19.163 32.438-29.494 53.293-25.988 10.776 3.567 21.546 7.58 32.191 11.96v0c10.644 4.448 21.104 9.205 31.253 14.281 17.22 12.275 25.801 35.442 19.289 56.113l-6.202 19.728c-8.453 32.188-0.125 67.884 25.114 93.122 25.174 25.177 60.81 33.569 92.936 25.116l19.854-6.266c20.603-6.45 43.777 2.070 56.113 19.29 5.074 10.148 9.896 20.54 14.281 31.254v0c4.445 10.645 8.39 21.416 11.959 32.188 3.566 20.919-6.762 43.337-25.926 53.357v0zM509.568 214.887c-129.964 0-235.27 105.378-235.27 235.278 0 129.893 105.306 235.271 235.27 235.271 129.971 0 235.278-105.378 235.278-235.271 0-129.9-105.306-235.278-235.278-235.278v0z" />
<glyph unicode="&#xe907;" glyph-name="search" d="M1005.26 29.154l-224.017 224.377c-4.857 4.869-10.436 8.575-16.391 11.148 56.986 72.040 91.013 163.073 91.013 262.050 0 233.486-189.288 422.747-422.748 422.747-233.461 0-422.747-189.262-422.747-422.747 0-233.46 189.286-422.748 422.747-422.748 99.070 0 190.182 34.091 262.255 91.177 2.566-5.931 6.254-11.494 11.098-16.349l224.017-224.377c20.589-20.643 54.081-20.643 74.723-0.053 20.642 20.592 20.642 54.082 0.051 74.776zM433.117 209.668c-175.095 0-317.060 141.964-317.060 317.060 0 175.094 141.964 317.060 317.060 317.060s317.060-141.965 317.060-317.060c0.001-175.096-141.964-317.060-317.060-317.060z" />
<glyph unicode="&#xe908;" glyph-name="netease" horiz-adv-x="1028" d="M206.796 837.92c-38.395-17.917-74.869-58.232-88.307-98.546-15.358-43.514-15.358-547.762 0-591.276 14.078-41.594 49.913-81.268 90.227-98.546l34.555-15.358h552.882l32.635 15.358c38.395 17.917 74.869 58.232 88.307 98.546 15.358 43.514 15.358 547.762 0 591.276-13.438 40.314-49.913 80.629-88.307 98.546l-32.635 15.358h-556.721l-32.635-15.358zM663.051 768.81c26.236-10.878 53.112-37.755 53.112-52.473s-17.278-35.835-29.436-35.835c-4.479 0-19.837 5.759-33.915 13.438-31.356 15.998-45.434 14.078-57.592-7.679-7.679-14.078-8.319-21.757-1.92-42.874 7.039-23.677 10.239-26.236 38.395-33.275 72.31-17.278 120.943-60.791 149.739-133.741 18.557-47.353 20.477-147.819 3.2-195.812-22.397-63.991-84.468-124.782-158.058-152.938-39.034-15.358-117.743-20.477-160.617-10.239-192.613 44.794-291.159 288.599-188.133 464.574 33.915 58.232 126.062 136.941 159.977 136.941 7.679 0 19.197-5.759 24.956-12.158 20.477-22.397 10.239-39.034-44.794-78.069-78.069-55.672-111.984-118.383-111.984-206.691 0-71.67 26.876-133.101 80.629-182.374 44.154-40.314 79.349-54.392 140.78-55.032 85.748 0 147.179 36.475 183.014 108.785 19.197 39.034 19.837 44.154 17.278 98.546-2.56 49.273-5.119 61.431-21.757 87.668-17.917 28.796-72.95 68.47-82.548 59.512-1.92-2.56 1.92-26.876 9.599-54.392 7.039-27.516 12.798-55.672 12.798-62.711 0-51.833-40.314-105.585-88.947-119.023-82.548-22.397-149.739 40.954-149.739 141.42 0 69.75 34.555 122.223 98.546 151.019l23.037 10.239-2.56 55.032c-3.2 49.913-1.92 56.952 10.878 73.59 31.356 39.034 82.548 53.112 126.062 34.555zM513.952 521.165c-20.477-12.798-40.954-52.473-40.954-81.268 0-24.317 16.638-58.232 31.995-66.551 28.156-15.358 70.39 10.878 70.39 43.514 0 9.599-5.119 39.674-10.878 67.19-12.798 54.392-17.278 57.592-50.553 37.115z" />
<glyph unicode="&#xe909;" glyph-name="mine" d="M955.924 37.064c1.231-4.084 2.092-8.33 2.092-12.817 0-24.64-19.951-44.603-44.57-44.603-24.616 0-44.567 19.963-44.567 44.603 0 0.049 0.013 0.094 0.013 0.143h-1.167c-11.606 186.693-166.217 334.626-355.781 334.626-189.568 0-344.179-147.933-355.785-334.626h-1.055c0.002-0.049 0.015-0.094 0.015-0.143 0-24.64-19.952-44.603-44.57-44.603-24.616 0-44.567 19.963-44.567 44.603 0 4.226 0.776 8.235 1.874 12.111 12.944 169.401 119.952 312.437 269.339 376.16-69.481 50.685-114.818 132.507-114.818 225.116 0 153.926 124.739 278.723 278.623 278.723 153.875 0 278.621-124.796 278.621-278.723 0-89.328-42.175-168.639-107.508-219.646 156.621-60.409 270.177-206.487 283.811-380.925zM690.306 637.634c0 104.573-84.904 189.338-189.633 189.338-104.737 0-189.637-84.766-189.637-189.338 0-104.563 84.9-189.336 189.637-189.336 104.729 0 189.633 84.773 189.633 189.336z" />
<glyph unicode="&#xe90a;" glyph-name="like" d="M550.865 113.485l-83.299-2.364c213.759 114.686 416.774 347.408 416.797 504.685 0.013 88.553-71.062 158.012-163.522 158.012-52.546 0-105.013-24.212-138.94-63.328l-70.325-81.082-70.325 81.082c-33.927 39.117-86.394 63.328-138.94 63.328-92.196 0-162.677-69.2-162.677-158.026 0-166.582 203.261-405.491 411.229-502.307zM511.577 771.485l57.508 49.879c44.286 28.785 97.283 45.546 151.756 45.546 143.23 0 256.634-110.489 256.613-251.117-0.034-225.833-268.288-480.69-465.877-586.701-209.264 97.419-465.032 357.933-465.032 586.701 0 140.626 112.538 251.117 255.767 251.117 54.473 0 107.47-16.761 151.756-45.546l57.508-49.879z" />
<glyph unicode="&#xe90b;" glyph-name="next" d="M163.7 44.1l643.9 371.8c27.8 16 27.8 56.1 0 72.1l-643.9 371.8c-27.8 16-62.5-4-62.5-36.1v-743.5c0-32.1 34.7-52.1 62.5-36.1zM875.6 0.2c26.1 0 47.2 21.1 47.2 47.2v801.2c0 26.1-21.1 47.2-47.2 47.2s-47.2-21.1-47.2-47.2v-801.3c0-26 21.2-47.1 47.2-47.1z" />
<glyph unicode="&#xe90c;" glyph-name="download" d="M935.633 504.25h-59.766c-14.561 0-26.367-11.806-26.367-26.367v-367.383h-675v367.383c0 14.561-11.806 26.367-26.367 26.367h-59.766c-14.561 0-26.367-11.806-26.367-26.367v-453.516c0-14.561 11.806-26.367 26.367-26.367h847.266c14.561 0 26.367 11.806 26.367 26.367v453.516c0 14.561-11.806 26.367-26.367 26.367zM568.25 504.25v365.625c0 15.532-12.593 28.125-28.125 28.125h-56.25c-15.532 0-28.125-12.593-28.125-28.125v-365.625h-168.75l225-225 225 225h-168.75z" />
<glyph unicode="&#xe90d;" glyph-name="music" d="M844.744 895.359l-483.775-80.815c-1.568-0.251-3.031-0.71-4.453-1.255h-17.475c-11.915 0-21.384-9.532-21.384-21.281v-553.029c-18.876 10.913-40.826 17.14-64.217 17.14-70.927 0-128.433-57.359-128.433-128.139s57.506-128.137 128.433-128.137c70.926 0 128.433 57.359 128.433 128.139 0 5.184-0.314 10.285-0.899 15.26 0.585 1.965 0.899 4.013 0.899 6.188v449.765l449.514 79.267v-311.299c-18.876 10.871-40.826 17.142-64.217 17.142-70.927 0-128.433-57.401-128.433-128.183 0-70.738 57.506-128.139 128.433-128.139s128.432 57.401 128.432 128.139c0 5.184-0.313 10.285-0.898 15.301 0.585 1.967 0.898 4.015 0.898 6.188v597.973c0 10.452-7.588 19.19-17.579 20.946-3.492 2.174-7.882 3.051-12.71 2.257l-11.371-1.923h-1.171c-2.843-0.001-5.561-0.544-8.027-1.506z" />
<glyph unicode="&#xe90e;" glyph-name="playing" d="M889.881 706.538c-0.368 18.683-15.6 33.709-34.383 33.709s-34.014-15.027-34.383-33.709h-0.017v-642.092h68.8v642.092h-0.015zM167.514 510.928c-18.783 0-34.015-15.027-34.382-33.71h-0.017v-412.773h68.798v412.773h-0.017c-0.368 18.683-15.598 33.71-34.38 33.71zM396.841 831.974c-18.783 0-34.014-15.026-34.382-33.708h-0.017v-733.82h68.798v733.819h-0.017c-0.367 18.683-15.597 33.709-34.38 33.709zM626.17 625.588c-18.783 0-34.015-15.026-34.384-33.709h-0.017v-527.432h68.801v527.432h-0.017c-0.366 18.682-15.6 33.709-34.381 33.709z" />
<glyph unicode="&#xe90f;" glyph-name="volume" d="M838.9 177.279c-19.066 18.761-19.066 43.775 0 62.535 120.751 118.817 120.751 306.423 0 425.241-19.066 18.761-19.066 43.775 0 62.535s44.487 18.761 63.553 0c76.264-75.042 120.751-168.846 120.751-268.902s-44.487-200.113-120.751-268.902c-6.355-6.254-19.066-12.507-31.777-12.507-12.711-12.507-25.421-6.254-31.777 0v0zM711.794 246.068c-12.711 0-25.421 6.254-31.777 12.507-19.066 18.761-19.066 43.775 0 62.535 76.264 75.042 76.264 187.606 0 262.649-19.066 18.761-19.066 43.775 0 62.535s44.487 18.761 63.553 0c114.396-106.31 114.396-275.156 0-381.466-12.711-12.507-19.066-18.761-31.777-18.761v0 0zM476.648 890.183c57.198 43.775 101.685 18.761 101.685-50.028v-781.692c0-68.789-44.487-87.55-95.33-43.775l-228.791 187.606h-127.106c-69.908 0-127.106 56.282-127.106 125.071v256.395c0 68.789 57.198 125.071 127.106 125.071h120.751l228.791 181.353z" />
<glyph unicode="&#xe910;" glyph-name="mail" d="M840.357 841.086h-655.911c-102.265 0-184.344-82.693-184.344-184.753v-481.814c0-103.085 82.591-184.753 184.344-184.753h655.911c102.265 0 184.344 82.693 184.344 184.753v481.814c0.001 0.244 0.002 0.532 0.002 0.82 0 101.584-82.35 183.934-183.934 183.934-0.145 0-0.29 0-0.434-0.001zM186.086 746.506h652.529c5.943 0 11.682-0.512 17.317-1.64l-343.992-343.992-343.889 343.889c5.406 1.108 11.619 1.742 17.98 1.742 0.019 0 0.039 0 0.058 0zM931.555 176.465c0-0.063 0-0.137 0-0.212 0-50.707-41.106-91.813-91.813-91.813-0.396 0-0.792 0.003-1.187 0.008l-652.469-0.001c-0.092 0-0.201-0.001-0.309-0.001-50.944 0-92.283 41.124-92.631 91.985v478.056c0 9.53 1.435 18.752 4.099 27.36l382.008-382.008c15.985-15.985 41.295-17.42 59.33-4.201 3.223 1.986 6.013 4.222 8.498 6.756l380.068 380.069c2.794-8.32 4.406-17.902 4.406-27.859 0-0.040 0-0.081 0-0.121v-478.017z" />
<glyph unicode="&#xe911;" glyph-name="stop" d="M347.8 86.6c0-55-45.8-99.6-102.4-99.6s-102.4 44.6-102.4 99.6v722.6c0 55 45.8 99.6 102.4 99.6s102.4-44.6 102.4-99.6v-722.6zM881.2 86.6c0-55-45.8-99.6-102.4-99.6s-102.4 44.6-102.4 99.6v722.6c0 55 45.8 99.6 102.4 99.6s102.4-44.6 102.4-99.6v-722.6z" />
<glyph unicode="&#xe912;" glyph-name="left" d="M345.48 429.598l364.152 364.213c21.474 21.474 21.474 56.29 0 77.734-21.474 21.474-56.26 21.474-77.734 0l-403.034-403.095c-21.474-21.474-21.474-56.29 0-77.734l403.034-403.034c10.752-10.722 24.817-16.083 38.882-16.083s28.13 5.361 38.852 16.113c21.474 21.474 21.474 56.26 0 77.734l-364.152 364.152z" />
<glyph unicode="&#xe913;" glyph-name="mv" d="M853.333 789.333h-682.667c-62.578 0-113.778-51.2-113.778-113.778v-455.111c0-62.578 51.2-113.778 113.778-113.778h682.667c62.578 0 113.778 51.2 113.778 113.778v455.111c0 62.578-51.2 113.778-113.778 113.778zM910.222 220.444c0-34.133-22.756-56.889-56.889-56.889h-682.667c-34.133 0-56.889 22.756-56.889 56.889v455.111c0 34.133 22.756 56.889 56.889 56.889h682.667c34.133 0 56.889-22.756 56.889-56.889v-455.111zM398.222 277.333l284.444 170.667-284.444 170.667v-341.333z" />
<glyph unicode="&#xe914;" glyph-name="wytiny" horiz-adv-x="2717" d="M96.283 745.912l198.23-545.982h-96.283l-198.23 545.982c0 0 1.133 0 1.133 0h95.15zM492.743 745.912l-198.23-545.982h-96.283l198.23 545.982zM492.743 745.912l198.23-545.982h-96.283l-198.23 545.982zM889.204 745.912l-198.23-545.982h-97.416l198.23 545.982zM896 546.549l115.54-317.168-86.088-31.717-78.159 216.354zM1219.965 744.779l-293.381-807.646h-97.416l294.513 807.646zM1685.522 745.912h-368.142l-32.85-91.752 368.142 1.133zM1626.619 960l-277.522-761.204h-96.283l276.389 761.204zM1882.619 744.779l-199.363-545.982h-96.283l198.23 545.982zM2102.372 734.584l-194.832-535.788h-96.283l198.23 545.982h65.699zM2111.434 744.779l198.23-545.982h-96.283l-199.363 545.982zM2323.257 744.779l195.965-536.92-84.956-30.584-207.292 567.504zM2717.451 744.779l-294.513-808.779h-97.416l294.513 808.779zM1961.912 958.867l-40.779-114.407-97.416 1.133 41.912 113.274z" />
<glyph unicode="&#xe915;" glyph-name="exit" d="M706.452 694.61c43.228-30.572 78.966-71.107 103.818-118.103 24.852-47.022 38.902-100.393 38.912-157.302 0-1.418-0.010-2.852-0.026-4.285l-0.005-0.486 0.005 0.497c-0.579-46.341-10.409-90.122-27.699-129.976-25.923-59.756-68.782-110.612-122.378-146.422-53.637-35.809-117.724-56.596-186.977-56.617-1.418 0-2.847 0.010-4.27 0.026-46.341 0.579-90.127 10.404-129.981 27.694-59.756 25.928-110.612 68.782-146.422 122.383-35.809 53.632-56.596 117.729-56.617 186.988 0 1.418 0.005 2.842 0.026 4.26 0.712 56.371 15.094 109.005 39.982 155.305 24.888 46.28 60.339 86.124 103.035 116.239 23.107 16.302 28.621 48.246 12.319 71.352s-48.246 28.621-71.352 12.319c-55.603-39.235-101.699-91.018-134.185-151.404-32.481-60.36-51.297-129.423-52.188-202.542-0.026-1.843-0.036-3.692-0.036-5.53-0.005-59.94 12.078-117.376 33.981-169.631 32.855-78.403 87.665-145.198 156.897-192.788 69.202-47.59 153.108-75.94 243.277-77.036 1.848-0.026 3.697-0.036 5.54-0.036 59.935-0.005 117.371 12.078 169.62 33.981 78.403 32.855 145.193 87.665 192.783 156.897 47.596 69.197 75.945 153.103 77.041 243.267l0.005 0.486-0.005-0.476c0.026 1.838 0.036 3.686 0.036 5.535 0.010 73.871-18.355 143.898-50.796 205.184-32.44 61.307-78.889 113.987-135.204 153.82-23.086 16.328-55.040 10.854-71.363-12.237-16.338-23.081-10.854-55.035 12.227-71.363zM460.8 880.64v-420.362c0-28.273 22.922-51.2 51.2-51.2 28.273 0 51.2 22.927 51.2 51.2v420.362c0 28.278-22.927 51.2-51.2 51.2-28.278 0-51.2-22.922-51.2-51.2z" />
<glyph unicode="&#xe916;" glyph-name="smile" d="M721.101 345.688q-21.142-69.138-78.852-111.421t-130.277-42.283-130.277 42.283-78.852 111.421q-4.571 14.285 2.286 27.713t21.713 17.999q14.285 4.571 27.713-2.286t17.999-21.713q14.285-45.711 52.854-73.995t86.566-28.284 86.566 28.284 52.854 73.995q4.571 14.856 18.285 21.713t27.998 2.286 21.142-17.999 2.286-27.713zM438.834 594.244q0-30.284-21.427-51.711t-51.711-21.427-51.711 21.427-21.427 51.711 21.427 51.711 51.711 21.427 51.711-21.427 21.427-51.711zM731.386 594.244q0-30.284-21.427-51.711t-51.711-21.427-51.711 21.427-21.427 51.711 21.427 51.711 51.711 21.427 51.711-21.427 21.427-51.711zM877.663 447.967q0 74.281-29.141 141.991t-77.995 116.564-116.564 77.995-141.991 29.141-141.991-29.141-116.564-77.995-77.995-116.564-29.141-141.991 29.141-141.991 77.995-116.564 116.564-77.995 141.991-29.141 141.991 29.141 116.564 77.995 77.995 116.564 29.141 141.991zM950.801 447.967q0-119.421-58.853-220.272t-159.704-159.704-220.272-58.853-220.272 58.853-159.704 159.704-58.853 220.272 58.853 220.272 159.704 159.704 220.272 58.853 220.272-58.853 159.704-159.704 58.853-220.272z" />
<glyph unicode="&#xe917;" glyph-name="at" d="M660.208 187.531h53.080c132.717 44.237 209.387 148.936 230.038 314.087 2.946 88.475-10.326 154.832-39.819 199.065-76.675 126.815-200.544 191.693-371.589 194.641-61.929 2.949-136.055-2.504-212.338-39.809-155.858-76.228-227.088-213.814-238.88-367.171-5.897-85.528 7.37-166.626 39.815-243.308 73.727-153.351 191.693-234.45 353.896-243.301 144.507-5.897 272.793 39.814 384.861 137.135l-48.658 53.090c-132.713-109.126-277.226-140.091-433.525-92.905-135.663 58.988-209.389 171.055-221.189 336.207 2.948 73.727 20.644 141.552 53.089 203.485 64.876 117.966 169.312 191.814 314.079 190.225 213.055-2.344 328.829-106.172 349.474-265.426 2.951-147.455-50.135-246.257-159.25-296.391h-26.544c-20.644 14.749-28.016 35.389-22.119 61.934l110.586 367.171h-88.467l-13.276-48.66-26.543 35.387c-73.725 50.135-150.401 51.609-230.031 4.423-70.78-53.083-116.491-120.174-137.136-201.272-20.638-81.103-19.17-147.461 4.423-199.070s64.887-81.839 123.868-90.684c67.832-5.897 128.285 19.166 181.368 75.202v-4.429c0-38.336 23.599-64.878 70.785-79.626v0zM461.138 276.007l-57.512 4.428c-44.233 14.742-63.403 53.077-57.506 115.012 23.592 147.454 87.001 231.508 190.219 252.153 61.934-2.954 97.321-26.541 106.169-70.779-8.842-153.36-69.296-253.628-181.371-300.814v0z" />
<glyph unicode="&#xe918;" glyph-name="share" horiz-adv-x="1040" d="M866.425 312.065c0 8.183-4.304 14.105-12.917 17.874-7.755 3.23-14.966 1.615-21.532-4.951-10.661-9.798-21.75-17.441-33.269-22.718-7.428-4.090-11.087-10.014-11.087-17.874v-131.684c0-27.026-9.69-50.284-28.962-69.554s-42.42-28.962-69.554-28.962h-511.877c-27.026 0-50.284 9.69-69.554 28.962s-28.962 42.42-28.962 69.554v511.877c0 27.026 9.69 50.284 28.962 69.554s42.42 28.962 69.554 28.962h68.909c2.474 0 5.707 0.861 9.798 2.474 22.934 14 50.284 26.273 81.831 36.931 10.661 2.047 16.043 8.614 16.043 19.703 0 5.386-1.937 9.907-5.812 13.89-3.877 3.877-8.506 5.812-13.89 5.812h-156.877c-48.777 0-90.554-17.334-125.224-52.005s-52.005-76.447-52.005-125.224v-511.984c0-48.777 17.334-90.554 52.005-125.224s76.447-52.005 125.224-52.005h511.877c48.777 0 90.554 17.334 125.224 52.005s52.005 76.447 52.005 125.224l0.108 159.357-0.018 0.007zM1023.954 644.887c0 10.661-3.877 19.919-11.736 27.672l-236.235 236.235c-7.755 7.755-17.014 11.736-27.672 11.736-4.951 0-10.014-1.075-15.399-3.122-16.043-6.998-24.014-19.058-24.014-36.286v-118.114h-98.414c-43.503 0-83.769-2.26-120.915-6.784s-69.881-10.769-98.093-18.737c-28.316-7.969-53.834-17.982-76.552-29.826s-42.099-24.548-58.145-37.793c-16.046-13.245-30.041-28.532-42.099-45.545s-21.75-33.701-28.962-50.174c-7.215-16.369-12.917-34.457-17.229-54.162-4.304-19.703-7.215-38.116-8.614-55.343-1.398-17.229-2.154-35.855-2.154-55.992 0-22.934 3.555-48.022 10.769-75.046 7.215-27.026 15.075-50.5 23.687-70.096 8.614-19.703 18.736-40.058 30.474-61.267 11.736-21.106 19.812-35.209 24.334-42.099 4.524-6.998 8.829-13.353 12.917-19.058 4.090-5.386 9.474-7.969 16.043-7.969 1.615 0 4.090 0.434 7.428 1.186 9.474 4.524 13.569 11.521 12.274 20.887-18.414 137.824-3.23 234.837 45.545 291.040 47.163 53.728 136.961 80.647 269.503 80.647h98.414v-118.114c0-17.229 7.969-29.288 24.014-36.286 5.386-2.047 10.444-3.122 15.399-3.122 11.087 0 20.351 3.877 27.672 11.736l236.235 236.235c7.642 7.755 11.521 16.905 11.521 27.565l0.004-0.004z" />
<glyph unicode="&#xe919;" glyph-name="lyric" d="M793.941 800h-563.883c-38.699 0-70.059-31.616-70.059-70.059v-563.84c0-38.741 31.616-70.101 70.059-70.101h563.84c38.699 0 70.059 31.616 70.059 70.059v563.883c0.043 38.699-31.573 70.059-70.016 70.059zM799.659 160c0 0.299-575.659 0.341-575.659 0.341 0.299 0 0.341 575.659 0.341 575.659 0-0.299 575.659-0.341 575.659-0.341-0.299 0-0.341-575.659-0.341-575.659zM703.659 278.528l0.341-0.171v331.989c-1.152 18.603-13.952 28.501-38.357 29.653h-205.867c-12.8-1.152-19.755-9.301-20.949-24.405 1.152-15.104 8.149-23.253 20.949-24.405h190.123c3.499 0 5.248-1.749 5.248-5.248v-282.581l0.469-0.256h-65.792c-6.699 0-17.579-8.704-18.432-22.656 0.853-15.104 10.112-23.253 18.432-24.405h98.944c8.789 1.067 13.739 8.576 14.891 22.485zM477.227 521.387c-11.648 1.152-18.005 9.301-19.2 24.405 1.152 13.952 7.552 21.504 19.2 22.656h143.019c13.952-1.152 21.504-8.704 22.656-22.656-1.152-15.104-8.149-23.253-20.949-24.405h-144.725zM334.72 592.896c-6.827 1.152-22.016 9.301-22.699 24.448 0.683 13.952 13.397 21.504 20.267 22.656h56.235c8.235-1.152 20.011-8.704 20.693-22.656-0.64-15.147-13.141-23.296-20.693-24.448h-53.803zM402.219 304.384v204.8c1.152 25.6-8.704 37.803-29.653 36.651h-41.856c-12.8-1.195-19.755-9.344-20.949-24.448 1.152-16.299 8.149-25.003 20.949-26.155h17.451c3.499 0 5.248-1.749 5.248-5.248v-206.677c-0.085-0.512-0.128-1.067-0.128-1.621 0.128-3.029 0.853-5.76 1.963-8.235 2.901-9.515 7.893-14.464 19.115-17.237 1.877-0.299 3.712 0.085 5.547 1.067h49.152c7.253 1.152 20.779 9.301 21.461 24.405-0.64 13.952-13.525 21.504-21.461 22.656 0 0-12.16 0-24.875 0h-1.963zM499.925 326.016c-24.405 0-36.651 11.648-36.651 34.901v101.163c0 23.253 10.453 34.901 31.403 34.901h102.912c24.405 0 36.053-9.899 34.901-29.653v-106.411c0-23.253-10.453-34.901-31.403-34.901h-101.163zM512.128 376.619c1.152-2.347 2.901-4.053 5.248-5.248h61.056c3.499 0 5.248 1.749 5.248 5.248v68.011c0 3.499-1.749 5.248-5.248 5.248h-61.099c-3.499 0-5.248-1.749-5.248-5.248v-68.011z" />
<glyph unicode="&#xe91a;" glyph-name="single" d="M997.971 422.744c0-179.042-126.276-358.084-358.084-358.084-105.711 0-321.227 0-422.027 0-4.374 0-8.875 0-12.789 0h-22.252l62.358-62.332c15.040-15.065 15.040-39.44 0-54.48-15.065-15.040-39.44-15.040-54.48 0l-127.094 127.094c-0.256 0.23-0.307 0.563-0.563 0.818-7.034 6.957-11.433 16.6-11.433 27.266 0 10.691 4.399 20.308 11.433 27.266 0.256 0.256 0.307 0.588 0.563 0.844l127.094 127.094c15.040 15.040 39.415 15.040 54.48 0 15.040-15.040 15.040-39.44 0-54.48l-62.358-62.358h22.252c3.709 0 8.082 0 12.789 0 60.081 0 198.916 0 370.872 0 228.585 0 332.506 131.084 332.506 358.084h2.583c-1.458 4.041-2.583 8.262-2.583 12.789v51.155c0 21.204 17.188 38.366 38.366 38.366s38.366-17.162 38.366-38.366v-51.155c0-4.527-1.125-8.747-2.583-12.789h2.583v-76.732zM489.006 601.786c5.295 14.835 19.132 25.577 35.783 25.577 21.178 0 38.366-17.162 38.366-38.366v-306.929c0-21.178-17.188-38.366-38.366-38.366s-38.366 17.188-38.366 38.366v242.985h-12.789c-21.178 0-38.366 17.188-38.366 38.366 0 21.204 17.188 38.366 38.366 38.366h15.372zM960.398 765.533l-127.094-127.094c-15.040-15.040-39.415-15.040-54.454 0-15.065 15.040-15.065 39.415 0 54.454l62.332 62.358h-22.252c-3.709 0-8.082 0-12.789 0-60.081 0-198.916 0-370.872 0-228.585 0-332.506-131.084-332.506-358.084h-2.583c1.458-4.041 2.583-8.236 2.583-12.789v-51.155c0-21.178-17.188-38.366-38.366-38.366s-38.366 17.188-38.366 38.366v51.155c0 4.553 1.125 8.747 2.583 12.789h-2.583v76.732c0 179.042 126.301 358.084 358.084 358.084 105.711 0 321.227 0 422.027 0 4.374 0 8.875 0 12.789 0h22.252l-62.332 62.358c-15.065 15.040-15.065 39.44 0 54.48 15.040 15.040 39.415 15.040 54.454 0l127.094-127.12c0.256-0.23 0.307-0.563 0.563-0.818 7.034-6.957 11.433-16.574 11.433-27.266 0-10.666-4.399-20.308-11.433-27.266-0.23-0.256-0.307-0.588-0.563-0.818z" />
</font>
</defs>
</svg>
