<?xml version="1.0" standalone="no"?><!DOCTYPE svg PUBLIC "-//W3C//DTD SVG 1.1//EN" "http://www.w3.org/Graphics/SVG/1.1/DTD/svg11.dtd"><svg class="icon" width="32px" height="32.00px" viewBox="0 0 1024 1024" version="1.1" xmlns="http://www.w3.org/2000/svg"><path fill="#8a8a8a" d="M935.633 455.75h-59.766c-14.561 0-26.367 11.806-26.367 26.367v367.383h-675v-367.383c0-14.561-11.806-26.367-26.367-26.367h-59.766c-14.561 0-26.367 11.806-26.367 26.367v453.516c0 14.561 11.806 26.367 26.367 26.367h847.266c14.561 0 26.367-11.806 26.367-26.367v-453.516c0-14.561-11.806-26.367-26.367-26.367zM568.25 455.75v-365.625c0-15.532-12.593-28.125-28.125-28.125h-56.25c-15.532 0-28.125 12.593-28.125 28.125v365.625h-168.75l225 225 225-225h-168.75z" /></svg>