<?xml version="1.0" standalone="no"?><!DOCTYPE svg PUBLIC "-//W3C//DTD SVG 1.1//EN" "http://www.w3.org/Graphics/SVG/1.1/DTD/svg11.dtd"><svg class="icon" width="32px" height="32.00px" viewBox="0 0 1024 1024" version="1.1" xmlns="http://www.w3.org/2000/svg"><path fill="#8a8a8a" d="M815.36 709.12c44.8-60.16 67.84-130.56 67.84-203.52s-23.04-143.36-67.84-203.52c-12.8-17.92-39.68-21.76-57.6-8.96-19.2 12.8-23.04 38.4-8.96 56.32 34.56 46.08 52.48 99.84 52.48 156.16s-17.92 110.08-52.48 156.16c-12.8 17.92-8.96 43.52 8.96 56.32 7.68 5.12 15.36 7.68 24.32 7.68C794.88 727.04 807.68 720.64 815.36 709.12zM249.6 505.6c0-56.32 17.92-110.08 51.2-156.16 12.8-17.92 8.96-43.52-8.96-56.32-19.2-12.8-44.8-8.96-57.6 8.96C189.44 362.24 166.4 432.64 166.4 505.6s23.04 144.64 67.84 203.52c7.68 11.52 20.48 16.64 33.28 16.64 8.96 0 16.64-2.56 24.32-7.68 19.2-12.8 23.04-38.4 8.96-56.32C267.52 615.68 249.6 561.92 249.6 505.6zM853.76 148.48c-15.36-16.64-40.96-17.92-58.88-3.84-16.64 15.36-19.2 40.96-3.84 57.6 75.52 84.48 117.76 192 117.76 303.36s-42.24 218.88-117.76 303.36c-15.36 16.64-12.8 42.24 3.84 57.6 7.68 6.4 17.92 10.24 26.88 10.24 11.52 0 23.04-5.12 30.72-14.08 89.6-99.84 138.24-226.56 138.24-357.12C992 375.04 943.36 247.04 853.76 148.48zM128 505.6c0-111.36 42.24-218.88 117.76-303.36 15.36-16.64 12.8-42.24-3.84-57.6s-43.52-12.8-58.88 3.84c-89.6 99.84-138.24 226.56-138.24 357.12s48.64 258.56 138.24 357.12c7.68 8.96 19.2 14.08 30.72 14.08 10.24 0 19.2-3.84 26.88-10.24 16.64-15.36 19.2-40.96 3.84-57.6C170.24 724.48 128 616.96 128 505.6zM518.4 334.08c-101.12 0-184.32 80.64-184.32 179.2 0 51.2 21.76 99.84 61.44 133.12 16.64 15.36 43.52 14.08 58.88-2.56 15.36-16.64 14.08-42.24-3.84-57.6-21.76-19.2-33.28-44.8-33.28-72.96 0-53.76 44.8-98.56 101.12-98.56 55.04 0 101.12 44.8 101.12 98.56s-44.8 98.56-101.12 98.56l-7.68 0c-17.92 0-33.28 10.24-39.68 26.88-5.12 12.8-12.8 25.6-23.04 35.84-16.64 16.64-15.36 42.24 1.28 57.6 7.68 7.68 17.92 11.52 29.44 11.52 10.24 0 21.76-3.84 29.44-12.8 11.52-11.52 21.76-25.6 29.44-39.68 92.16-8.96 165.12-85.76 165.12-179.2C702.72 414.72 619.52 334.08 518.4 334.08z" /></svg>