<?xml version="1.0" standalone="no"?><!DOCTYPE svg PUBLIC "-//W3C//DTD SVG 1.1//EN" "http://www.w3.org/Graphics/SVG/1.1/DTD/svg11.dtd"><svg class="icon" width="32px" height="32.00px" viewBox="0 0 1024 1024" version="1.1" xmlns="http://www.w3.org/2000/svg"><path fill="#8a8a8a" d="M955.923532 922.936233c1.231037 4.084015 2.091638 8.329712 2.091638 12.81691 0 24.64019-19.951401 44.602847-44.570101 44.602847-24.615631 0-44.567032-19.962657-44.567032-44.602847 0-0.049119 0.013303-0.094144 0.013303-0.143263l-1.166569 0c-11.606339-186.693006-166.216649-334.626243-355.781052-334.626243-189.568497 0-344.178807 147.933237-355.785146 334.626243l-1.055029 0c0.002047 0.049119 0.01535 0.094144 0.01535 0.143263 0 24.64019-19.952424 44.602847-44.570101 44.602847-24.615631 0-44.567032-19.962657-44.567032-44.602847 0-4.226255 0.775666-8.234545 1.873674-12.110829C80.799234 754.241137 187.807387 611.205443 337.194742 547.482119c-69.481468-50.685379-114.818025-132.506896-114.818025-225.116107 0-153.925718 124.738979-278.723026 278.622742-278.723026 153.874553 0 278.620695 124.796284 278.620695 278.723026 0 89.328491-42.174542 168.638815-107.507526 219.645512C828.733735 602.420359 942.290023 748.498342 955.923532 922.936233zM690.305989 322.366012c0-104.572684-84.903715-189.338253-189.632965-189.338253-104.737436 0-189.637058 84.765569-189.637058 189.338253 0 104.563474 84.899622 189.336206 189.637058 189.336206C605.402273 511.702218 690.305989 426.929486 690.305989 322.366012z" /></svg>