<?xml version="1.0" standalone="no"?><!DOCTYPE svg PUBLIC "-//W3C//DTD SVG 1.1//EN" "http://www.w3.org/Graphics/SVG/1.1/DTD/svg11.dtd"><svg class="icon" width="32px" height="32.00px" viewBox="0 0 1024 1024" version="1.1" xmlns="http://www.w3.org/2000/svg"><path fill="#8a8a8a" d="M1005.259682 930.84639 781.242606 706.46911c-4.856611-4.868891-10.435677-8.575306-16.391319-11.147898 56.985876-72.039733 91.012853-163.073052 91.012853-262.050298 0-233.485729-189.288111-422.747233-422.748257-422.747233-233.461169 0-422.747233 189.261505-422.747233 422.747233 0 233.460146 189.286064 422.748257 422.747233 422.748257 99.070366 0 190.18248-34.091446 262.254959-91.176582 2.566452 5.931083 6.254447 11.493775 11.097756 16.349363L930.485675 1005.569232c20.588921 20.643156 54.080709 20.643156 74.722842 0.053212C1025.850649 985.030453 1025.850649 951.540711 1005.259682 930.84639zM433.116907 750.332107c-175.094854 0-317.060169-141.964292-317.060169-317.060169 0-175.09383 141.964292-317.060169 317.060169-317.060169 175.095877 0 317.060169 141.965316 317.060169 317.060169C750.178099 608.367815 608.212784 750.332107 433.116907 750.332107z" /></svg>