<?xml version="1.0" standalone="no"?><!DOCTYPE svg PUBLIC "-//W3C//DTD SVG 1.1//EN" "http://www.w3.org/Graphics/SVG/1.1/DTD/svg11.dtd"><svg class="icon" width="32px" height="32.00px" viewBox="0 0 1024 1024" version="1.1" xmlns="http://www.w3.org/2000/svg"><path fill="#8a8a8a" d="M347.8 873.4c0 55-45.8 99.6-102.4 99.6s-102.4-44.6-102.4-99.6L143 150.8c0-55 45.8-99.6 102.4-99.6s102.4 44.6 102.4 99.6L347.8 873.4 347.8 873.4zM881.2 873.4c0 55-45.8 99.6-102.4 99.6s-102.4-44.6-102.4-99.6L676.4 150.8c0-55 45.8-99.6 102.4-99.6 56.6 0 102.4 44.6 102.4 99.6L881.2 873.4 881.2 873.4z" /></svg>