<?xml version="1.0" standalone="no"?><!DOCTYPE svg PUBLIC "-//W3C//DTD SVG 1.1//EN" "http://www.w3.org/Graphics/SVG/1.1/DTD/svg11.dtd"><svg class="icon" width="32px" height="32.00px" viewBox="0 0 1024 1024" version="1.1" xmlns="http://www.w3.org/2000/svg"><path fill="#8a8a8a" d="M106.345412 886.256941a29.455059 29.455059 0 0 1-29.409883-29.424941c0-74.721882 23.612235-145.664 68.291765-205.161412a346.307765 346.307765 0 0 1 76.604235-74.450823 338.522353 338.522353 0 0 1 78.336-41.441883 219.934118 219.934118 0 0 1-64.572235-66.213647 215.612235 215.612235 0 0 1-33.024-115.034353c0-119.808 97.460706-217.253647 217.268706-217.253647 119.792941 0 217.253647 97.460706 217.253647 217.253647 0 73.336471-36.020706 140.197647-96.798118 180.645647a343.913412 343.913412 0 0 1 77.040942 40.929883 341.985882 341.985882 0 0 1 76.589176 74.586353 338.838588 338.838588 0 0 1 68.427294 205.161411c0 16.218353-13.191529 29.424941-29.409882 29.424942s-29.424941-13.206588-29.424941-29.424942c0-75.700706-29.455059-146.913882-82.928942-200.493176-51.937882-52.193882-120.681412-81.739294-193.536-83.184941l-0.798117 0.361412c-2.319059 0.466824-4.517647 0.737882-6.640941 0.737882-0.843294 0-1.656471-0.045176-2.469647-0.120471-74.300235 0.015059-144.926118 29.560471-198.445177 83.184942-53.473882 53.850353-82.928941 125.063529-82.928941 200.493176a29.470118 29.470118 0 0 1-29.424941 29.424941z m313.6-690.160941c-87.356235 0-158.418824 71.062588-158.418824 158.418824s71.062588 158.418824 158.418824 158.418823 158.433882-71.062588 158.433882-158.418823-71.077647-158.418824-158.433882-158.418824z m479.879529 626.206118a29.455059 29.455059 0 0 1-29.424941-29.409883c0-130.123294-99.132235-235.986824-220.988235-235.986823a29.470118 29.470118 0 1 1 0-58.955294c66.650353 0 120.877176-58.232471 120.877176-129.792 0-71.574588-54.241882-129.807059-120.877176-129.807059-16.218353 0-29.409882-13.191529-29.409883-29.424941s13.191529-29.424941 29.409883-29.424942c99.102118 0 179.727059 84.630588 179.727059 188.641883 0 33.415529-8.432941 66.183529-24.365177 94.750117a186.488471 186.488471 0 0 1-48.986353 57.283765c47.751529 20.660706 89.072941 54.844235 119.868235 99.267765 35.192471 50.823529 53.714824 110.787765 53.609412 173.462588a29.470118 29.470118 0 0 1-29.44 29.394824z"  /></svg>