<?xml version="1.0" standalone="no"?><!DOCTYPE svg PUBLIC "-//W3C//DTD SVG 1.1//EN" "http://www.w3.org/Graphics/SVG/1.1/DTD/svg11.dtd"><svg class="icon" width="32px" height="31.06px" viewBox="0 0 1055 1024" version="1.1" xmlns="http://www.w3.org/2000/svg"><path fill="#8a8a8a" d="M1010.516047 403.238232C985.941254 403.238232 966.020777 381.456029 966.020777 354.523048 966.020777 206.050337 889.969238 125.778884 806.377705 103.903594L806.377705 800.99616C806.439763 802.857887 806.719022 804.688585 806.719022 806.58134 806.719022 808.474096 806.439763 810.304794 806.377705 812.166521L806.377705 820.420176C806.377705 821.785442 805.726101 822.902478 805.633015 824.236716 794.679855 935.878266 681.176579 1024 542.974394 1024 397.542503 1024 279.229766 926.476545 279.229766 806.58134 279.229766 686.748193 397.542503 589.193709 542.974394 589.193709 608.041745 589.193709 667.585973 608.834927 713.632683 641.135887L713.632683 48.268992C713.632683 36.043653 718.380086 25.18358 725.578763 16.681694 726.199338 15.937004 726.540655 14.913054 727.192259 14.199392 727.347403 14.044248 727.533576 13.98219 727.657691 13.858075 735.663116 5.35619 746.49216 0.050268 758.500298 0.050268 758.903672 0.050268 759.307046 0.112326 759.71042 0.112326 759.803507 0.112326 759.896593 0.050268 760.020708 0.050268 760.175852 0.050268 760.330996 0.143355 760.48614 0.143355 907.190211 1.229362 1054.980289 122.862179 1054.980289 354.523048 1054.980289 381.456029 1035.059812 403.238232 1010.516047 403.238232ZM542.974394 681.535358C450.01217 681.535358 374.426062 737.635392 374.426062 806.58134 374.426062 875.558318 450.01217 931.658351 542.974394 931.658351 635.936618 931.658351 711.522726 875.558318 711.522726 806.58134 711.522726 737.635392 635.936618 681.535358 542.974394 681.535358ZM542.415876 341.335817 47.413753 341.335817C21.380606 341.335817 0.250007 320.577563 0.250007 294.97882 0.250007 269.380077 21.380606 248.621823 47.413753 248.621823L542.415876 248.621823C568.417993 248.621823 589.548592 269.380077 589.548592 294.97882 589.548592 320.577563 568.417993 341.335817 542.415876 341.335817ZM542.415876 93.07455 47.413753 93.07455C21.380606 93.07455 0.250007 72.347325 0.250007 46.748582 0.250007 21.149839 21.380606 0.391585 47.413753 0.391585L542.415876 0.391585C568.417993 0.391585 589.548592 21.149839 589.548592 46.748582 589.548592 72.347325 568.417993 93.07455 542.415876 93.07455ZM47.413753 496.88309 294.185638 496.88309C320.187755 496.88309 341.318354 517.610315 341.318354 543.209058 341.318354 568.807801 320.187755 589.566055 294.185638 589.566055L47.413753 589.566055C21.380606 589.566055 0.250007 568.807801 0.250007 543.209058 0.250007 517.610315 21.380606 496.88309 47.413753 496.88309Z" /></svg>