<?xml version="1.0" standalone="no"?><!DOCTYPE svg PUBLIC "-//W3C//DTD SVG 1.1//EN" "http://www.w3.org/Graphics/SVG/1.1/DTD/svg11.dtd"><svg class="icon" width="32px" height="32.00px" viewBox="0 0 1024 1024" version="1.1" xmlns="http://www.w3.org/2000/svg"><path fill="#8a8a8a" d="M926.857031 602.965781l-18.35402-9.583263c-28.682249-16.7198-48.035016-47.844681-48.035016-83.546811 0-35.634592 19.291368-66.757426 47.974641-83.544765l18.414395-9.642614c19.164478-10.019191 29.492708-32.441876 25.987884-53.293787-3.569292-10.773368-7.577582-21.542642-11.960403-32.18912l0 0c-4.447289-10.650571-9.206686-21.109784-14.280238-31.253818-12.274558-17.220197-35.44528-25.802666-56.114019-19.290345l-19.791765 6.203282c-32.188096 8.452509-67.822688 0.122797-93.060489-25.115004-25.238824-25.235754-33.56649-60.870346-25.113981-92.999091l6.202259-19.789719c6.511297-20.60734-2.068102-43.777039-19.289322-56.112995-10.149151-5.075599-20.539802-9.895371-31.252795-14.282285l0 0c-10.645454-4.444219-21.414729-8.392134-32.191166-11.960403-20.85498-3.50687-43.337018 6.824429-53.292764 25.987884l-9.586332 18.352997c-16.779152 28.744671-47.90915 48.035016-83.544765 48.035016-35.633568 0-66.75845-19.290345-83.542718-48.035016l-9.580193-18.352997c-10.020214-19.163455-32.437783-29.494755-53.293787-25.987884-10.837836 3.508917-21.544689 7.517207-32.252565 11.897981l0 0c-10.649548 4.449335-21.10876 9.206686-31.253818 14.282285-17.220197 12.33698-25.801642 35.504632-19.288299 56.175417l6.201236 19.789719c8.452509 32.191166 0.062422 67.823712-25.112957 92.999091-25.175379 25.237801-60.810994 33.567513-93.001137 25.175379l-19.85214-6.263657c-20.608364-6.513344-43.777039 2.070148-56.051597 19.290345-5.135974 10.144034-9.895371 20.602224-14.282285 31.253818l0 0c-4.443196 10.645454-8.390088 21.414729-11.95938 32.18912-3.50687 20.919449 6.822382 43.338041 25.987884 53.356208l18.352997 9.580193c28.744671 16.786315 48.03297 47.90915 48.03297 83.544765 0 35.635615-19.288299 66.702168-47.971571 83.482343l-18.413372 9.647731c-19.165502 10.020214-29.494755 32.437783-25.987884 53.293787 3.569292 10.775414 7.577582 21.543665 11.95938 32.190143l0 0c4.449335 10.645454 9.206686 21.103644 14.282285 31.251771 12.274558 17.219173 35.443233 25.803689 56.112995 19.291368l19.723204-6.203282c32.194236-8.452509 67.892273-0.122797 93.067652 25.116027 25.175379 25.174356 33.565467 60.808948 25.175379 92.935646l-6.262634 19.914562c-6.451946 20.609387 2.068102 43.776016 19.288299 56.112995 10.144034 5.076622 20.540825 9.894348 31.253818 14.281261l0 0c10.645454 4.445242 21.414729 8.393157 32.18912 11.960403 20.850887 3.50687 43.337018-6.824429 53.296857-25.987884l9.579169-18.352997c16.784268-28.683273 47.910173-48.035016 83.60514-48.035016 35.634592 0 66.704215 19.291368 83.482343 47.910173l9.648754 18.47784c10.018168 19.163455 32.437783 29.493731 53.292764 25.987884 10.776438-3.567245 21.545712-7.579629 32.191166-11.960403l0 0c10.644431-4.448312 21.103644-9.204639 31.252795-14.281261 17.220197-12.274558 25.800619-35.44221 19.289322-56.112995l-6.202259-19.72832c-8.452509-32.188096-0.124843-67.884087 25.113981-93.121887 25.174356-25.177426 60.809971-33.568537 92.935646-25.116027l19.854187 6.265704c20.603247 6.449899 43.777039-2.070148 56.112995-19.290345 5.073552-10.148128 9.896394-20.539802 14.281261-31.253818l0 0c4.445242-10.645454 8.390088-21.415752 11.95938-32.188096C956.349739 635.403564 946.021509 612.985995 926.857031 602.965781L926.857031 602.965781zM509.568113 745.113245c-129.96398 0-235.270375-105.378026-235.270375-235.277538 0-129.893372 105.306394-235.271398 235.270375-235.271398 129.971144 0 235.277538 105.378026 235.277538 235.271398C744.845651 639.73522 639.539256 745.113245 509.568113 745.113245L509.568113 745.113245zM509.568113 715.941855" /></svg>