<?xml version="1.0" standalone="no"?><!DOCTYPE svg PUBLIC "-//W3C//DTD SVG 1.1//EN" "http://www.w3.org/Graphics/SVG/1.1/DTD/svg11.dtd"><svg class="icon" width="32px" height="28.82px" viewBox="0 0 1137 1024" version="1.1" xmlns="http://www.w3.org/2000/svg"><path fill="#8a8a8a" d="M933.091556 78.734222h-728.291556c-113.550222 0-204.686222 91.818667-204.686222 205.141334v534.983111c0 114.460444 91.704889 205.141333 204.686222 205.141333h728.291556c113.550222 0 204.686222-91.818667 204.686222-205.141333v-534.983111a204.231111 204.231111 0 0 0-204.686222-205.141334z m-726.471112 105.016889h724.536889c6.599111 0 12.970667 0.568889 19.228445 1.820445l-381.952 381.952-381.838222-381.838223a103.992889 103.992889 0 0 1 20.024888-1.934222z m827.733334 632.945778a101.944889 101.944889 0 0 1-103.196445 102.172444h-724.536889a102.855111 102.855111 0 0 1-103.196444-102.172444v-530.773333c0-10.581333 1.592889-20.821333 4.551111-30.378667l424.163556 424.163555c17.749333 17.749333 45.852444 19.342222 65.877333 4.664889a48.924444 48.924444 0 0 0 9.443556-7.509333l422.001777-422.001778a100.238222 100.238222 0 0 1 4.892445 31.061334v530.773333z"  /></svg>