<?xml version="1.0" standalone="no"?><!DOCTYPE svg PUBLIC "-//W3C//DTD SVG 1.1//EN" "http://www.w3.org/Graphics/SVG/1.1/DTD/svg11.dtd"><svg class="icon" width="32px" height="32.00px" viewBox="0 0 1024 1024" version="1.1" xmlns="http://www.w3.org/2000/svg"><path fill="#8a8a8a" d="M889.881018 253.461689c-0.368405-18.682501-15.599919-33.708729-34.383474-33.708729-18.782532 0-34.014045 15.027252-34.383474 33.708729l-0.017397 0 0 642.091894 68.799695 0L889.896368 253.461689 889.881018 253.461689zM167.513902 449.071785c-18.782532 0-34.015068 15.027252-34.38245 33.709753l-0.017397 0 0 412.773068 68.797648 0L201.911702 482.781538l-0.017397 0C201.5259 464.099037 186.296433 449.071785 167.513902 449.071785zM396.8411 128.025838c-18.782532 0-34.014045 15.026228-34.38245 33.707706l-0.017397 0 0 733.820038 68.797648 0L431.238901 161.734568l-0.017397 0C430.854122 143.052067 415.624655 128.025838 396.8411 128.025838zM626.170345 334.412372c-18.782532 0-34.015068 15.026228-34.384497 33.708729l-0.017397 0 0 527.432481 68.800718 0 0-527.432481-0.017397 0C660.185414 349.438601 644.951854 334.412372 626.170345 334.412372z" /></svg>