<?xml version="1.0" standalone="no"?><!DOCTYPE svg PUBLIC "-//W3C//DTD SVG 1.1//EN" "http://www.w3.org/Graphics/SVG/1.1/DTD/svg11.dtd"><svg class="icon" width="32px" height="28.79px" viewBox="0 0 1138 1024" version="1.1" xmlns="http://www.w3.org/2000/svg"><path fill="#8a8a8a" d="M932.293568 816.593848C911.105077 795.744647 911.105077 767.945705 932.293568 747.0965 1066.487338 615.051537 1066.487338 406.55949 932.293568 274.514528 911.105077 253.665324 911.105077 225.866384 932.293568 205.017179 953.482058 184.167975 981.733376 184.167975 1002.921866 205.017179 1087.675828 288.413998 1137.115637 392.660021 1137.115637 503.855779 1137.115637 615.051537 1087.675828 726.247295 1002.921866 802.694379 995.859035 809.644115 981.733376 816.593848 967.607717 816.593848 953.482058 830.493321 939.356395 823.543584 932.293568 816.593848L932.293568 816.593848ZM791.036966 740.146764C776.911307 740.146764 762.785644 733.197031 755.722816 726.247295 734.534326 705.39809 734.534326 677.599152 755.722816 656.749947 840.476774 573.353127 840.476774 448.2579 755.722816 364.861082 734.534326 344.011877 734.534326 316.212937 755.722816 295.363733 776.911307 274.514528 805.162625 274.514528 826.351115 295.363733 953.482058 413.509226 953.482058 601.152068 826.351115 719.297563 812.225456 733.197031 805.162625 740.146764 791.036966 740.146764L791.036966 740.146764 791.036966 740.146764ZM529.712253 24.324072C593.277724-24.324072 642.717533 3.474867 642.717533 79.921951L642.717533 948.638811C642.717533 1025.085895 593.277724 1045.9351 536.775085 997.286958L282.513202 788.79491 141.256601 788.79491C63.565471 788.79491 0 726.247295 0 649.800211L0 364.861082C0 288.413998 63.565471 225.866384 141.256601 225.866384L275.450372 225.866384 529.712253 24.324072 529.712253 24.324072Z" /></svg>